<svg width="461.789" height="76.875" viewBox="0 0 461.789 76.875" xmlns="http://www.w3.org/2000/svg"><g id="svgGroup" stroke-linecap="round" fill-rule="evenodd" font-size="9pt" stroke="#fff" stroke-width="0.25mm" fill="#fff" style="stroke:#000;stroke-width:0.25mm;fill:"><path d="M 159.492 36.094 L 167.578 30.703 A 30.558 30.558 0 0 0 168.627 31.431 Q 169.217 31.823 169.895 32.242 A 58.295 58.295 0 0 0 170.742 32.754 A 115.941 115.941 0 0 0 174.158 34.702 A 128.26 128.26 0 0 0 174.668 34.98 Q 176.719 36.094 178.887 37.207 A 129.88 129.88 0 0 1 181.482 38.576 A 107.605 107.605 0 0 1 182.93 39.375 A 10.425 10.425 0 0 1 185.859 41.25 A 47.787 47.787 0 0 1 188.32 43.652 Q 189.492 44.883 190.723 46.055 A 11.544 11.544 0 0 0 193.14 47.809 A 13.201 13.201 0 0 0 193.594 48.047 A 8.502 8.502 0 0 0 193.523 48.633 Q 193.43 49.758 193.711 50.508 A 3.935 3.935 0 0 1 193.909 51.277 Q 194.006 51.894 193.959 52.656 A 8.954 8.954 0 0 1 193.945 52.852 A 21.635 21.635 0 0 1 189.743 58.258 A 19.553 19.553 0 0 1 186.563 60.645 A 48.3 48.3 0 0 1 178.517 64.501 A 55.226 55.226 0 0 1 176.484 65.215 Q 170.977 67.031 164.941 68.438 A 82.5 82.5 0 0 0 153.281 72.07 Q 151.641 72.07 150.41 72.188 A 39.723 39.723 0 0 0 148.63 72.396 A 34.563 34.563 0 0 0 148.066 72.48 A 257.106 257.106 0 0 0 145.898 72.832 A 27.625 27.625 0 0 1 144.785 72.993 A 36.784 36.784 0 0 1 143.555 73.125 A 1.287 1.287 0 0 0 143.458 73.105 Q 143.292 73.076 143.178 73.109 A 0.307 0.307 0 0 0 142.969 73.301 A 1.561 1.561 0 0 1 142.617 73.828 Q 140.835 74.143 139.381 74.176 A 14.833 14.833 0 0 1 139.043 74.18 L 136.406 74.18 A 10.417 10.417 0 0 0 133.991 74.472 A 11.902 11.902 0 0 0 133.535 74.59 Q 132.07 75 130.898 74.883 A 22.681 22.681 0 0 1 124.67 73.723 A 17.148 17.148 0 0 1 117.129 68.613 A 21.062 21.062 0 0 1 113.247 61.685 Q 112.247 58.789 111.814 55.311 A 42.145 42.145 0 0 1 111.562 52.5 A 1.988 1.988 0 0 0 111.583 52.381 Q 111.649 51.902 111.387 51.797 A 1.561 1.561 0 0 1 110.859 51.445 A 7.824 7.824 0 0 1 110.906 50.567 Q 110.976 49.947 111.152 49.453 A 2.707 2.707 0 0 0 111.282 48.911 Q 111.374 48.241 111.211 47.344 A 83.689 83.689 0 0 1 118.125 35.332 Q 121.992 29.766 127.383 25.547 A 13.335 13.335 0 0 0 128.221 24.767 A 10.39 10.39 0 0 0 128.789 24.141 Q 129.375 23.438 129.902 22.734 Q 130.43 22.031 131.133 21.504 A 3.952 3.952 0 0 1 132.028 21.006 A 5.457 5.457 0 0 1 132.891 20.742 A 30.294 30.294 0 0 1 137.109 16.787 A 35.493 35.493 0 0 1 138.75 15.586 A 106.268 106.268 0 0 1 145.898 11.074 A 1257.236 1257.236 0 0 0 153.34 6.738 A 42.996 42.996 0 0 0 160.078 1.875 Q 161.367 2.461 161.953 2.227 A 1.641 1.641 0 0 1 162.568 2.109 Q 162.775 2.109 162.993 2.157 A 2.46 2.46 0 0 1 163.242 2.227 A 5.994 5.994 0 0 0 164.007 3.47 A 4.385 4.385 0 0 0 165.527 4.687 Q 166.992 5.391 168.457 6.152 A 15.984 15.984 0 0 1 171.211 7.969 A 6.443 6.443 0 0 1 172.761 9.848 A 8.12 8.12 0 0 1 173.203 10.781 A 1.388 1.388 0 0 0 172.974 10.798 Q 172.521 10.874 172.557 11.289 A 0.78 0.78 0 0 0 172.559 11.309 A 3.477 3.477 0 0 0 172.776 12.182 A 4.02 4.02 0 0 0 172.852 12.363 Q 173.039 12.785 173.039 13.207 A 1.909 1.909 0 0 1 173.027 13.418 A 0.512 0.512 0 0 1 172.697 13.855 Q 172.586 13.903 172.438 13.925 A 1.934 1.934 0 0 1 172.148 13.945 Q 172.242 14.412 172.669 14.544 A 1.174 1.174 0 0 0 172.91 14.59 Q 173.486 14.642 173.547 15.115 A 0.924 0.924 0 0 1 173.555 15.234 Q 173.555 15.82 173.262 16.172 A 0.668 0.668 0 0 0 173.13 16.436 Q 173.042 16.779 173.203 17.344 A 46.001 46.001 0 0 1 170.067 19.202 A 56.261 56.261 0 0 1 167.988 20.273 A 412.242 412.242 0 0 0 163.55 22.482 A 468.673 468.673 0 0 0 162.012 23.262 A 262.066 262.066 0 0 0 157.222 25.767 A 298.249 298.249 0 0 0 155.566 26.66 Q 152.227 28.477 149.063 30.82 A 97.884 97.884 0 0 0 144.454 34.462 A 114 114 0 0 0 142.617 36.035 Q 139.336 38.906 136.289 42.07 A 99.118 99.118 0 0 0 130.547 48.574 A 54.216 54.216 0 0 0 127.498 52.726 A 44.806 44.806 0 0 0 125.977 55.195 Q 126.211 55.781 126.504 56.074 A 1.745 1.745 0 0 1 126.715 56.335 Q 126.885 56.587 127.031 56.953 Q 130.26 57.155 133.099 56.966 A 37.699 37.699 0 0 0 134.004 56.895 A 20.984 20.984 0 0 1 135.905 56.808 A 21.918 21.918 0 0 1 140.508 57.305 A 1.08 1.08 0 0 0 140.914 56.795 A 1.471 1.471 0 0 0 140.977 56.602 A 1.031 1.031 0 0 1 141.485 55.94 A 1.424 1.424 0 0 1 141.563 55.898 A 93.634 93.634 0 0 0 149.546 54.722 A 77.598 77.598 0 0 0 153.984 53.73 A 668.724 668.724 0 0 0 165.703 50.625 A 253.512 253.512 0 0 1 164.81 50.288 A 186.718 186.718 0 0 1 164.004 49.98 A 35.637 35.637 0 0 0 162.906 49.578 A 30.807 30.807 0 0 0 162.539 49.453 A 1.461 1.461 0 0 1 162.411 49.308 Q 162.079 48.874 162.477 48.544 A 1.189 1.189 0 0 1 162.598 48.457 Q 163.242 48.047 163.711 47.578 A 8.528 8.528 0 0 1 161.873 46.185 A 7.52 7.52 0 0 1 161.074 45.234 A 6.017 6.017 0 0 1 160.318 43.739 Q 160.079 43.057 159.944 42.247 A 11.891 11.891 0 0 1 159.844 41.484 A 2.142 2.142 0 0 0 160.272 41.012 A 1.674 1.674 0 0 0 160.547 40.078 A 1.526 1.526 0 0 0 160.403 39.407 Q 160.228 39.045 159.844 38.789 A 2.747 2.747 0 0 0 159.719 38.761 Q 159.359 38.688 159.258 38.789 A 0.535 0.535 0 0 0 159.169 38.909 Q 159.137 38.967 159.111 39.041 A 1.19 1.19 0 0 0 159.082 39.141 A 1.428 1.428 0 0 1 158.998 39.386 A 1.169 1.169 0 0 1 158.906 39.551 A 0.164 0.164 0 0 1 158.798 39.621 Q 158.642 39.653 158.32 39.492 A 5.697 5.697 0 0 1 158.464 38.693 Q 158.604 38.152 158.848 37.734 A 5.586 5.586 0 0 0 159.253 36.869 A 7.26 7.26 0 0 0 159.492 36.094 Z M 191.016 74.18 L 189.727 73.242 A 8.015 8.015 0 0 0 189.268 72.29 A 9.067 9.067 0 0 0 189.141 72.07 A 10.294 10.294 0 0 0 188.547 71.191 A 11.866 11.866 0 0 0 188.32 70.898 A 14.985 14.985 0 0 1 187.5 69.761 Q 187.104 69.158 186.709 68.452 A 27.242 27.242 0 0 1 186.445 67.969 A 22.423 22.423 0 0 1 186.157 66.261 Q 185.93 64.475 186.09 63.057 A 8.695 8.695 0 0 1 186.211 62.285 A 45.003 45.003 0 0 1 187.383 57.773 A 64.434 64.434 0 0 0 187.734 56.686 A 71.795 71.795 0 0 0 187.852 56.309 A 68.039 68.039 0 0 1 188.203 55.199 A 60.977 60.977 0 0 1 188.32 54.844 A 10.599 10.599 0 0 1 183.75 50.156 A 18.922 18.922 0 0 1 182.605 47.351 A 14.155 14.155 0 0 1 181.992 44.297 A 11.696 11.696 0 0 1 182.337 42.754 Q 182.572 41.975 182.905 41.343 A 5.951 5.951 0 0 1 183.281 40.723 A 8.692 8.692 0 0 1 184.568 39.244 A 7.484 7.484 0 0 1 185.449 38.555 A 11.369 11.369 0 0 1 188.027 37.266 Q 189.375 36.797 190.664 36.445 L 192.188 37.031 A 11.488 11.488 0 0 0 193.176 37.917 Q 193.719 38.347 194.262 38.652 A 7.138 7.138 0 0 0 194.297 38.672 A 2.224 2.224 0 0 0 194.904 38.294 A 1.863 1.863 0 0 0 195.41 37.559 A 13.091 13.091 0 0 0 195.721 36.646 A 16.862 16.862 0 0 0 195.938 35.859 A 45.639 45.639 0 0 1 196.699 33.75 Q 197.109 32.695 197.695 31.641 A 6.535 6.535 0 0 1 197.676 31.139 A 5.519 5.519 0 0 1 198.164 28.828 A 3.911 3.911 0 0 0 196.924 28.228 A 3.659 3.659 0 0 0 196.406 28.125 A 1.037 1.037 0 0 1 196.282 28.115 Q 195.981 28.077 195.234 27.891 A 16.945 16.945 0 0 1 194.513 27.321 Q 193.859 26.772 193.485 26.316 A 3.705 3.705 0 0 1 193.301 26.074 A 104.695 104.695 0 0 1 192.543 24.965 A 91.093 91.093 0 0 1 192.305 24.609 A 8.485 8.485 0 0 0 191.527 23.252 A 6.497 6.497 0 0 0 190.547 22.148 L 189.375 21.328 L 189.961 20.156 Q 190.195 19.922 190.195 19.57 Q 190.195 19.22 189.73 18.521 A 8.313 8.313 0 0 0 189.727 18.516 A 9.268 9.268 0 0 1 189.665 18.133 Q 189.529 17.153 189.727 16.758 L 189.961 15.586 Q 190.898 14.297 190.898 14.18 L 191.953 13.125 A 62.79 62.79 0 0 0 196.582 11.777 A 327.832 327.832 0 0 0 201.211 10.195 A 298.92 298.92 0 0 0 205.723 8.73 A 62.79 62.79 0 0 1 210.352 7.383 A 4.431 4.431 0 0 1 211.877 6.671 A 4.257 4.257 0 0 1 212.109 6.621 A 45.702 45.702 0 0 1 213.018 6.46 A 37.014 37.014 0 0 1 213.867 6.328 A 23.046 23.046 0 0 1 214.541 6.226 A 17.31 17.31 0 0 1 215.156 6.152 A 1.673 1.673 0 0 0 215.471 6.092 Q 215.646 6.04 215.774 5.949 A 0.785 0.785 0 0 0 215.977 5.742 Q 217.383 5.273 219.258 4.688 A 72.201 72.201 0 0 1 221.272 4.158 Q 223.689 3.556 226.992 2.871 A 88.309 88.309 0 0 1 232.09 1.978 A 119.549 119.549 0 0 1 237.773 1.289 L 239.766 1.172 Q 240.352 1.289 240.938 1.23 A 11.77 11.77 0 0 1 242.109 1.172 Q 244.794 1.172 246.477 1.992 A 4.67 4.67 0 0 1 248.789 4.336 A 11.944 11.944 0 0 1 250.1 5.176 A 10.144 10.144 0 0 1 250.664 5.625 A 27.892 27.892 0 0 1 251.829 6.68 A 24.623 24.623 0 0 1 252.188 7.031 A 5.259 5.259 0 0 0 252.773 7.692 A 4.686 4.686 0 0 0 252.949 7.852 Q 253.359 8.203 253.594 8.32 A 11.632 11.632 0 0 1 254.37 9.69 Q 255.424 11.909 254.883 13.711 A 4.582 4.582 0 0 1 253.949 14.72 A 3.641 3.641 0 0 1 252.188 15.469 L 250.898 16.172 Q 249.911 16.082 249.302 16.061 A 9.865 9.865 0 0 0 248.965 16.055 L 247.617 16.055 A 59.813 59.813 0 0 0 244.874 16.122 Q 243.465 16.187 241.889 16.314 A 107.833 107.833 0 0 0 240.82 16.406 A 118.286 118.286 0 0 0 232.91 17.402 A 92.054 92.054 0 0 0 225.587 18.868 A 84.549 84.549 0 0 0 225.117 18.984 A 75.157 75.157 0 0 0 222.015 19.827 Q 220.137 20.383 218.555 20.977 L 216.445 22.031 A 12.219 12.219 0 0 0 216.079 22.643 Q 215.72 23.288 215.579 23.769 A 2.442 2.442 0 0 0 215.508 24.082 A 122.349 122.349 0 0 1 215.332 25.192 A 108.74 108.74 0 0 1 215.273 25.547 A 7.906 7.906 0 0 0 215.098 26.484 Q 215.039 26.953 214.922 27.539 A 8.923 8.923 0 0 0 212.94 32.925 A 11.269 11.269 0 0 0 212.93 33.398 A 34.456 34.456 0 0 0 212.556 34.054 Q 212.056 34.956 211.879 35.439 A 3.31 3.31 0 0 0 211.875 35.449 A 1.948 1.948 0 0 0 211.77 35.921 Q 211.721 36.401 211.868 37.002 A 4.824 4.824 0 0 0 211.875 37.031 A 10.081 10.081 0 0 0 213.605 37.591 Q 214.892 37.876 216.094 37.734 A 69.958 69.958 0 0 0 220.078 37.148 A 111.519 111.519 0 0 1 225.465 36.35 A 121.265 121.265 0 0 1 225.645 36.328 A 48.666 48.666 0 0 1 231.563 35.977 L 235.313 35.977 L 234.375 36.914 L 234.961 38.555 A 37.291 37.291 0 0 0 235.286 38.716 Q 235.69 38.912 235.908 39.003 A 3.617 3.617 0 0 0 235.957 39.023 Q 236.209 39.124 236.504 39.311 A 5.188 5.188 0 0 1 236.602 39.375 L 237.188 40.43 A 1.91 1.91 0 0 1 237.607 40.72 Q 237.771 40.867 237.927 41.063 A 3.746 3.746 0 0 1 238.066 41.25 A 2.289 2.289 0 0 1 238.322 41.744 Q 238.518 42.255 238.594 43.008 L 233.789 49.805 L 232.148 50.273 Q 230.938 50.202 229.9 50.391 A 7.014 7.014 0 0 0 228.633 50.742 A 25.162 25.162 0 0 1 226.992 51.152 A 7.953 7.953 0 0 1 225.809 51.311 A 9.439 9.439 0 0 1 225.234 51.328 Q 222.947 51.786 221.386 52.02 A 43.164 43.164 0 0 1 221.309 52.031 Q 219.727 52.266 218.086 52.5 A 44.947 44.947 0 0 0 213.984 53.145 Q 211.992 53.555 210.234 54.258 L 208.594 54.258 A 6.577 6.577 0 0 0 207.155 54.423 A 7.762 7.762 0 0 0 206.66 54.551 A 284.194 284.194 0 0 1 205.708 54.829 A 211.786 211.786 0 0 1 204.844 55.078 A 3.521 3.521 0 0 0 204.433 55.461 Q 204.223 55.692 204.092 55.936 A 1.995 1.995 0 0 0 204.023 56.074 A 31.016 31.016 0 0 0 203.672 56.898 A 35.433 35.433 0 0 0 203.555 57.187 A 9.799 9.799 0 0 1 203.087 58.489 Q 202.789 59.158 202.409 59.69 A 5.747 5.747 0 0 1 202.266 59.883 L 202.266 61.641 Q 201.328 62.813 201.152 63.457 A 11.416 11.416 0 0 1 200.771 64.614 A 10.513 10.513 0 0 1 200.742 64.688 A 4.645 4.645 0 0 0 200.571 64.963 Q 200.491 65.103 200.433 65.233 A 2.472 2.472 0 0 0 200.391 65.332 A 1.65 1.65 0 0 0 200.281 65.804 A 1.986 1.986 0 0 0 200.273 65.977 Q 201.133 67.588 200.811 69.593 A 7.772 7.772 0 0 1 200.742 69.961 Q 200.039 73.945 196.758 75.469 A 14.074 14.074 0 0 1 196.286 75.497 Q 195.389 75.536 194.805 75.431 A 2.855 2.855 0 0 1 194.473 75.352 A 15.069 15.069 0 0 1 193.398 74.974 A 17.857 17.857 0 0 1 192.891 74.766 Q 191.836 74.297 191.016 74.18 Z M 416.25 50.742 L 415.781 52.148 Q 415.257 52.673 415.059 53.034 A 1.119 1.119 0 0 0 414.961 53.262 A 1.173 1.173 0 0 1 414.765 53.645 Q 414.617 53.842 414.375 54.023 Q 414.258 55.313 413.555 56.602 A 8.024 8.024 0 0 0 413.328 57.242 A 6.351 6.351 0 0 0 413.203 57.715 A 9.162 9.162 0 0 0 413.152 57.96 Q 413.108 58.189 413.093 58.343 A 1.44 1.44 0 0 0 413.086 58.477 A 3.646 3.646 0 0 1 413.054 58.981 Q 412.97 59.577 412.67 59.869 A 0.925 0.925 0 0 1 412.5 60 Q 412.612 60.558 412.51 61.17 A 3.86 3.86 0 0 1 412.5 61.23 A 74.029 74.029 0 0 1 412.324 62.164 A 64.413 64.413 0 0 1 412.266 62.461 A 11.147 11.147 0 0 0 412.116 63.147 Q 411.944 64.079 412.031 64.688 A 25.255 25.255 0 0 0 412.328 65.075 Q 412.511 65.31 412.676 65.508 Q 412.941 65.826 413.062 66.335 A 3.121 3.121 0 0 1 413.086 66.445 A 11.689 11.689 0 0 0 413.416 66.658 Q 413.726 66.85 413.946 66.952 A 1.872 1.872 0 0 0 414.141 67.031 A 5.11 5.11 0 0 0 414.475 67.259 Q 414.899 67.527 415.547 67.852 L 416.602 69.023 Q 417.188 72.422 415.547 74.414 A 5.28 5.28 0 0 1 413.22 76.066 Q 411.713 76.641 409.57 76.641 L 408.164 76.641 A 6.556 6.556 0 0 1 407.9 76.362 Q 407.549 75.967 407.461 75.703 Q 406.622 75.389 406.065 75.168 A 40.117 40.117 0 0 1 405.938 75.117 A 1.902 1.902 0 0 1 405.381 74.766 Q 405.117 74.531 404.883 74.18 A 148.783 148.783 0 0 1 404.158 73.843 Q 403.125 73.359 402.422 73.008 L 401.367 72.422 L 401.367 71.016 A 7.48 7.48 0 0 1 400.137 68.672 A 20.726 20.726 0 0 1 399.492 66.094 A 25.429 25.429 0 0 0 399.112 64.593 A 22.034 22.034 0 0 0 398.965 64.102 A 7.044 7.044 0 0 0 398.581 63.124 A 5.619 5.619 0 0 0 398.203 62.461 Q 397.969 55.664 399.492 50.977 A 203.782 203.782 0 0 1 402.248 43.043 A 185.815 185.815 0 0 1 402.656 41.953 Q 403.594 39.609 404.531 37.207 Q 405.469 34.805 406.172 32.227 L 407.227 31.055 A 728.695 728.695 0 0 0 407.618 30.157 Q 408.142 28.957 408.521 28.073 A 241.806 241.806 0 0 0 408.574 27.949 Q 409.102 26.719 409.688 25.43 A 46.905 46.905 0 0 0 410.182 24.232 A 40.977 40.977 0 0 0 410.332 23.848 A 135.82 135.82 0 0 1 410.577 23.215 Q 410.69 22.926 410.792 22.668 A 77.811 77.811 0 0 1 410.859 22.5 A 14.858 14.858 0 0 0 410.186 22.515 A 11.388 11.388 0 0 0 409.57 22.559 A 12.124 12.124 0 0 0 408.398 22.734 A 23.046 23.046 0 0 1 407.725 22.837 A 17.31 17.31 0 0 1 407.109 22.91 A 11.77 11.77 0 0 1 405.938 22.969 A 9.187 9.187 0 0 1 405.557 22.961 Q 405.192 22.946 404.953 22.899 A 1.523 1.523 0 0 1 404.766 22.852 A 6.624 6.624 0 0 1 402.284 23.43 A 7.729 7.729 0 0 1 401.953 23.438 L 400.781 23.438 A 3.674 3.674 0 0 1 400.409 23.419 A 2.876 2.876 0 0 1 400.137 23.379 A 3.33 3.33 0 0 0 399.892 23.339 Q 399.741 23.32 399.609 23.32 A 6.367 6.367 0 0 0 398.875 23.36 Q 398.517 23.402 398.218 23.487 A 2.789 2.789 0 0 0 397.734 23.672 L 395.039 23.672 L 393.867 23.672 Q 393.708 23.672 393.494 23.699 A 5.541 5.541 0 0 0 393.281 23.73 A 5.468 5.468 0 0 1 393.053 23.764 Q 392.849 23.789 392.695 23.789 A 8.724 8.724 0 0 1 391.68 23.727 A 10.956 10.956 0 0 1 390.938 23.613 A 5.603 5.603 0 0 1 389.971 23.335 Q 389.473 23.145 388.945 22.852 A 28.15 28.15 0 0 0 388.451 22.21 Q 387.478 20.989 387.091 20.865 A 0.346 0.346 0 0 0 387.07 20.859 L 386.016 19.453 A 7.582 7.582 0 0 0 385.664 18.105 A 18.636 18.636 0 0 1 385.432 17.423 Q 385.317 17.066 385.203 16.666 A 29.995 29.995 0 0 1 385.195 16.641 A 29.856 29.856 0 0 1 384.578 14.946 A 35.187 35.187 0 0 1 384.316 14.121 A 8.741 8.741 0 0 1 384.036 12.841 Q 383.906 11.953 383.906 10.898 Q 384.023 9.964 384.373 9.495 A 1.525 1.525 0 0 1 384.375 9.492 Q 384.727 9.023 384.961 8.672 L 385.313 6.914 L 386.836 7.031 L 390.117 7.031 A 100.823 100.823 0 0 0 397.734 6.738 Q 401.602 6.445 405.703 6.094 Q 408.047 5.859 410.449 5.625 A 739.76 739.76 0 0 1 414.152 5.273 A 821.041 821.041 0 0 1 415.43 5.156 A 50.398 50.398 0 0 1 416.125 3.655 A 43.572 43.572 0 0 1 416.367 3.164 L 417.539 2.578 A 11.81 11.81 0 0 1 417.933 2.563 Q 419.733 2.523 420.527 3.105 Q 421.406 3.75 421.992 4.336 Q 424.57 4.102 427.207 3.809 A 87.541 87.541 0 0 0 432.539 3.047 A 264.711 264.711 0 0 1 440.566 1.992 A 69.817 69.817 0 0 1 446.466 1.553 A 61.8 61.8 0 0 1 448.359 1.523 A 41.9 41.9 0 0 1 451.093 1.61 A 37.662 37.662 0 0 1 451.523 1.641 A 30.533 30.533 0 0 1 453.163 1.81 A 24.23 24.23 0 0 1 454.336 1.992 L 455.508 2.813 A 4.245 4.245 0 0 0 456.218 3.82 A 5.068 5.068 0 0 0 456.504 4.102 A 41.476 41.476 0 0 0 457.852 5.273 A 24.24 24.24 0 0 1 459.434 6.872 A 31.085 31.085 0 0 1 460.664 8.32 Q 461.965 9.946 461.762 12.976 A 13.921 13.921 0 0 1 461.719 13.477 Q 460.941 14.643 460.486 15.003 A 1.024 1.024 0 0 1 460.313 15.117 L 459.258 16.523 L 458.086 16.406 A 4.898 4.898 0 0 0 457.312 16.465 A 3.977 3.977 0 0 0 456.797 16.582 Q 456.211 16.758 455.625 16.992 A 9.759 9.759 0 0 1 454.688 17.402 A 6.056 6.056 0 0 1 454.131 17.579 A 7.901 7.901 0 0 1 453.633 17.695 A 31.432 31.432 0 0 1 453.014 17.69 Q 452.377 17.677 451.934 17.637 A 14.439 14.439 0 0 0 450.934 17.582 A 16.356 16.356 0 0 0 450.586 17.578 A 47.855 47.855 0 0 0 447.142 17.708 A 60.43 60.43 0 0 0 444.258 17.988 A 309.27 309.27 0 0 0 437.578 18.867 A 114.076 114.076 0 0 1 434.161 19.329 A 100.596 100.596 0 0 1 433.066 19.453 A 113.168 113.168 0 0 1 431.001 19.658 A 82.235 82.235 0 0 1 429.141 19.805 A 71.001 71.001 0 0 1 428.372 22.093 Q 427.99 23.164 427.609 24.108 A 42.661 42.661 0 0 1 427.5 24.375 A 58.16 58.16 0 0 1 425.742 28.242 A 52.073 52.073 0 0 0 424.043 32.285 A 68.638 68.638 0 0 0 423.023 35.243 A 81.115 81.115 0 0 0 422.578 36.68 A 43.634 43.634 0 0 0 421.57 38.373 Q 421.114 39.181 420.748 39.925 A 26.074 26.074 0 0 0 420.645 40.137 A 15.874 15.874 0 0 0 419.843 42.16 A 20.03 20.03 0 0 0 419.414 43.711 Q 418.008 45.469 417.305 47.402 A 47.383 47.383 0 0 0 416.827 48.778 Q 416.604 49.456 416.434 50.054 A 22.706 22.706 0 0 0 416.25 50.742 Z M 67.969 54.844 Q 68.672 55.195 68.789 56.016 Q 68.906 56.836 68.789 57.305 A 4611.689 4611.689 0 0 0 67.829 58.532 Q 66.478 60.26 65.859 61.055 Q 65.054 62.09 64.7 62.617 A 8.483 8.483 0 0 0 64.688 62.637 A 4.757 4.757 0 0 1 64.285 63.161 A 3.74 3.74 0 0 1 63.926 63.516 Q 63.591 63.803 62.591 64.637 A 730.298 730.298 0 0 1 62.109 65.039 A 98.339 98.339 0 0 1 51.27 70.664 A 46.007 46.007 0 0 1 39.609 74.063 A 3.41 3.41 0 0 1 38.667 74.922 Q 37.683 75.549 36.035 75.879 A 559.141 559.141 0 0 0 33.501 76.392 A 435.397 435.397 0 0 0 31.172 76.875 A 1.272 1.272 0 0 1 30.93 76.72 Q 30.773 76.591 30.7 76.427 A 0.739 0.739 0 0 1 30.645 76.23 A 0.756 0.756 0 0 0 30.375 75.754 Q 30.267 75.661 30.117 75.586 A 2.224 2.224 0 0 1 30.022 76.06 Q 29.801 76.729 29.146 76.809 A 1.439 1.439 0 0 1 29.063 76.816 Q 28.125 76.875 26.777 76.348 A 16.915 16.915 0 0 1 25.224 75.643 A 21.71 21.71 0 0 1 23.965 74.941 A 83.336 83.336 0 0 1 22.924 74.307 Q 22.514 74.053 22.145 73.816 A 46.297 46.297 0 0 1 21.445 73.359 A 51.34 51.34 0 0 1 20.215 75.234 A 3.78 3.78 0 0 1 19.534 75.995 A 3.07 3.07 0 0 1 18.633 76.523 L 16.699 76.172 Q 16.055 76.055 15.469 76.641 A 4.41 4.41 0 0 1 14.91 76.311 Q 14.586 76.084 14.355 75.82 A 18.565 18.565 0 0 0 13.74 75.15 A 16.683 16.683 0 0 0 13.535 74.941 A 5.946 5.946 0 0 0 12.823 74.336 A 6.832 6.832 0 0 0 12.598 74.18 A 3.158 3.158 0 0 0 12.15 73.935 Q 11.722 73.741 11.133 73.594 A 0.73 0.73 0 0 0 11.2 73.376 Q 11.263 72.96 10.964 72.273 A 5.443 5.443 0 0 0 10.898 72.129 A 2.599 2.599 0 0 0 10.501 71.511 A 1.944 1.944 0 0 0 9.492 70.898 A 1.229 1.229 0 0 0 9.655 70.278 Q 9.655 69.65 9.082 68.848 A 9.51 9.51 0 0 1 7.738 66.106 A 10.456 10.456 0 0 1 7.734 66.094 A 24.952 24.952 0 0 0 7.961 64.569 A 31.411 31.411 0 0 0 8.086 63.281 A 2.764 2.764 0 0 1 8.218 62.6 Q 8.489 61.805 9.275 61.575 A 2.123 2.123 0 0 1 9.492 61.523 A 7.766 7.766 0 0 0 9.37 60.862 Q 9.295 60.541 9.197 60.267 A 4.283 4.283 0 0 0 9.141 60.117 L 8.672 58.945 A 3.927 3.927 0 0 0 9.844 57.246 A 17.678 17.678 0 0 0 10.43 55.195 A 21.237 21.237 0 0 1 11.016 53.086 A 3.569 3.569 0 0 1 12.276 51.35 A 4.319 4.319 0 0 1 12.305 51.328 A 302.637 302.637 0 0 1 12.803 49.684 Q 13.497 47.415 13.935 46.144 A 44.785 44.785 0 0 1 13.945 46.113 A 22.72 22.72 0 0 0 14.704 43.391 A 20.353 20.353 0 0 0 14.824 42.773 A 83.688 83.688 0 0 1 15.146 41.074 A 103.411 103.411 0 0 1 15.527 39.258 A 22.497 22.497 0 0 1 15.885 37.858 Q 16.3 36.416 16.992 34.57 Q 16.875 32.813 17.344 31.465 A 75.122 75.122 0 0 1 18.34 28.77 A 21.437 21.437 0 0 0 19.219 25.957 Q 19.569 24.499 19.106 22.518 A 12.264 12.264 0 0 0 19.102 22.5 A 4.546 4.546 0 0 0 18.21 22.647 Q 17.686 22.792 17.301 23.068 A 2.289 2.289 0 0 0 16.758 23.613 A 4.666 4.666 0 0 0 16.217 24.648 Q 16.032 25.133 15.914 25.708 A 9.057 9.057 0 0 0 15.82 26.25 A 2.897 2.897 0 0 1 13.731 27.132 Q 13.712 27.132 13.692 27.132 A 3.617 3.617 0 0 1 13.535 27.129 A 8.727 8.727 0 0 0 13.156 27.121 Q 12.037 27.121 11.133 27.422 A 18.492 18.492 0 0 1 6.355 24.663 A 16.622 16.622 0 0 1 4.336 22.734 A 23.796 23.796 0 0 1 0.54 16.846 A 27.616 27.616 0 0 1 0 15.586 A 11.268 11.268 0 0 1 3.164 11.074 A 19.979 19.979 0 0 1 7.624 8.188 A 22.403 22.403 0 0 1 7.969 8.027 A 32.972 32.972 0 0 1 13.331 6.132 A 36.283 36.283 0 0 1 13.711 6.035 L 19.57 4.57 A 189.637 189.637 0 0 0 28.711 2.695 A 31.407 31.407 0 0 1 34.542 1.932 Q 36.495 1.855 38.555 1.992 A 3.64 3.64 0 0 1 39.331 1.714 Q 39.703 1.624 40.131 1.59 A 6.266 6.266 0 0 1 40.254 1.582 A 34.845 34.845 0 0 1 42.239 1.523 A 37.883 37.883 0 0 1 42.305 1.523 A 35.026 35.026 0 0 0 44.293 1.468 A 32.247 32.247 0 0 0 44.355 1.465 Q 45.28 1.41 45.952 1.104 A 3.203 3.203 0 0 0 46.055 1.055 A 2.363 2.363 0 0 0 47.022 1.739 A 3.45 3.45 0 0 0 47.754 1.934 A 4.241 4.241 0 0 1 48.743 2.225 Q 49.421 2.512 50.156 3.047 Q 51.563 1.992 52.559 2.578 A 12.751 12.751 0 0 1 54.167 3.693 A 11.596 11.596 0 0 1 54.375 3.867 Q 55.195 4.57 55.957 5.156 A 3.059 3.059 0 0 0 56.61 5.546 A 2.327 2.327 0 0 0 57.539 5.742 A 10.204 10.204 0 0 0 58.725 7.015 A 12.781 12.781 0 0 0 59.59 7.734 Q 60.82 8.672 61.934 9.668 A 10.995 10.995 0 0 1 63.562 11.474 A 10.086 10.086 0 0 1 63.809 11.836 A 4.737 4.737 0 0 1 64.558 14.144 A 5.837 5.837 0 0 1 64.57 14.531 A 1.303 1.303 0 0 0 64.554 14.63 Q 64.494 15.127 64.922 15.234 A 1.345 1.345 0 0 1 65.273 15.373 A 1.051 1.051 0 0 1 65.625 15.703 Q 65.742 19.336 64.512 21.973 Q 63.281 24.609 61.465 26.836 Q 59.648 29.063 57.48 31.055 Q 55.313 33.047 53.555 35.273 Q 54.727 36.797 56.25 37.969 Q 57.773 39.141 59.355 40.313 A 37.079 37.079 0 0 1 62.344 42.773 A 11.32 11.32 0 0 1 64.688 45.82 A 2.01 2.01 0 0 0 65.007 46.078 A 2.616 2.616 0 0 0 65.273 46.23 A 6.45 6.45 0 0 1 65.878 46.576 A 7.206 7.206 0 0 1 65.977 46.641 A 16.053 16.053 0 0 0 66.571 48.28 A 18.907 18.907 0 0 0 66.914 49.043 A 30.309 30.309 0 0 1 67.563 50.499 A 24.599 24.599 0 0 1 67.91 51.387 A 12.271 12.271 0 0 1 68.195 52.253 Q 68.319 52.687 68.39 53.079 A 6.543 6.543 0 0 1 68.438 53.379 Q 68.555 54.258 67.969 54.844 Z M 272.227 11.016 L 272.227 9.727 A 12.084 12.084 0 0 0 273.545 9.047 Q 274.678 8.366 275.332 7.559 A 483.393 483.393 0 0 0 276.137 6.562 Q 276.496 6.115 276.896 5.617 A 960.015 960.015 0 0 0 277.734 4.57 A 26.098 26.098 0 0 1 278.354 4.509 Q 278.948 4.457 279.374 4.453 A 7.399 7.399 0 0 1 279.434 4.453 A 5.258 5.258 0 0 0 279.847 4.435 Q 280.255 4.402 280.821 4.312 A 24.876 24.876 0 0 0 281.367 4.219 A 22.859 22.859 0 0 1 281.936 3.273 Q 282.479 2.422 282.955 1.881 A 6.256 6.256 0 0 1 283.066 1.758 Q 283.828 0.938 285.352 0 A 9.674 9.674 0 0 0 287.83 0.833 A 11.254 11.254 0 0 0 288.457 0.938 A 5.101 5.101 0 0 1 291.324 2.342 A 6.307 6.307 0 0 1 291.445 2.461 Q 291.534 3.344 291.888 3.928 A 2.27 2.27 0 0 0 292.148 4.277 A 9.187 9.187 0 0 0 293.438 5.449 Q 294.141 5.977 294.785 6.563 A 2.659 2.659 0 0 1 295.406 7.424 Q 295.569 7.775 295.664 8.203 Q 295.923 8.268 296.092 8.225 A 0.374 0.374 0 0 0 296.309 8.086 A 0.376 0.376 0 0 1 296.53 7.945 Q 296.676 7.911 296.885 7.953 A 1.587 1.587 0 0 1 296.953 7.969 A 12.732 12.732 0 0 0 297.13 8.698 Q 297.316 9.369 297.53 9.773 A 1.849 1.849 0 0 0 297.773 10.137 A 2.265 2.265 0 0 1 298.022 10.487 Q 298.367 11.069 298.711 12.188 A 11.117 11.117 0 0 0 297.832 14.59 A 2.607 2.607 0 0 1 296.562 16.301 A 3.376 3.376 0 0 1 296.367 16.406 A 2.083 2.083 0 0 0 296.354 16.522 Q 296.297 17.179 296.76 17.274 A 0.754 0.754 0 0 0 296.836 17.285 Q 297.336 17.335 297.495 17.769 A 1.09 1.09 0 0 1 297.539 17.93 A 3.923 3.923 0 0 1 297.558 18.16 Q 297.591 18.795 297.382 19.188 A 1.104 1.104 0 0 1 297.188 19.453 A 77.946 77.946 0 0 1 302.227 29.121 A 77.946 77.946 0 0 0 307.266 38.789 A 8.376 8.376 0 0 0 307.236 39.485 A 7.565 7.565 0 0 0 307.5 41.484 Q 307.852 42.773 308.379 44.004 A 48.278 48.278 0 0 1 309.375 46.523 Q 309.844 47.813 310.078 49.102 A 11.921 11.921 0 0 1 310.193 50.566 Q 310.212 51.573 310.078 52.676 A 20.04 20.04 0 0 1 309.258 56.426 A 14.702 14.702 0 0 1 308.286 58.757 A 12.86 12.86 0 0 1 307.734 59.707 A 7.214 7.214 0 0 1 306.778 60.913 A 5.518 5.518 0 0 1 305.508 61.875 Q 303.867 63.984 301.523 65.156 A 22.919 22.919 0 0 0 297.187 67.969 A 8.851 8.851 0 0 1 294.464 69.107 A 10 10 0 0 1 294.316 69.141 Q 292.734 69.492 291.094 69.844 Q 289.805 70.547 288.047 71.309 Q 286.289 72.07 284.414 72.715 Q 282.539 73.359 280.664 73.652 A 18.693 18.693 0 0 1 279.423 73.806 Q 278.394 73.897 277.535 73.84 A 9.118 9.118 0 0 1 277.383 73.828 A 32.53 32.53 0 0 1 272.738 75.164 A 27.803 27.803 0 0 1 270.527 75.527 Q 267.188 75.938 262.734 75 Q 259.002 75.518 255.775 74.845 A 16.885 16.885 0 0 1 254.941 74.648 A 18.719 18.719 0 0 1 250.042 72.616 A 17.114 17.114 0 0 1 248.613 71.66 Q 245.859 69.609 243.809 66.738 Q 241.758 63.867 240.469 60.703 A 38.266 38.266 0 0 1 240.117 56.806 Q 239.993 53.454 240.53 50.448 A 25.321 25.321 0 0 1 240.938 48.574 A 41.002 41.002 0 0 1 244.817 38.786 A 38.511 38.511 0 0 1 244.98 38.496 Q 247.617 33.867 251.016 29.941 A 799.806 799.806 0 0 0 257.38 22.5 A 734.27 734.27 0 0 0 257.578 22.266 Q 258.086 22.435 258.441 22.329 A 0.841 0.841 0 0 0 258.691 22.207 A 2.634 2.634 0 0 0 259.099 21.843 Q 259.26 21.667 259.41 21.45 A 4.391 4.391 0 0 0 259.453 21.387 Q 259.805 20.859 260.215 20.391 A 1.752 1.752 0 0 1 261.211 19.805 A 5.981 5.981 0 0 1 262.414 18.066 A 5.461 5.461 0 0 1 263.613 17.168 A 6.507 6.507 0 0 0 266.133 14.648 Q 267.094 14.435 267.763 14.027 A 3.759 3.759 0 0 0 267.891 13.945 A 11.42 11.42 0 0 0 269.238 12.891 Q 269.883 12.305 270.586 11.777 A 4.4 4.4 0 0 1 271.869 11.118 A 5.232 5.232 0 0 1 272.227 11.016 Z M 347.695 11.016 L 347.695 9.727 A 12.084 12.084 0 0 0 349.014 9.047 Q 350.147 8.366 350.801 7.559 A 483.393 483.393 0 0 0 351.606 6.562 Q 351.965 6.115 352.364 5.617 A 960.015 960.015 0 0 0 353.203 4.57 A 26.098 26.098 0 0 1 353.822 4.509 Q 354.417 4.457 354.843 4.453 A 7.399 7.399 0 0 1 354.902 4.453 A 5.258 5.258 0 0 0 355.316 4.435 Q 355.724 4.402 356.289 4.312 A 24.876 24.876 0 0 0 356.836 4.219 A 22.859 22.859 0 0 1 357.405 3.273 Q 357.947 2.422 358.424 1.881 A 6.256 6.256 0 0 1 358.535 1.758 Q 359.297 0.938 360.82 0 A 9.674 9.674 0 0 0 363.299 0.833 A 11.254 11.254 0 0 0 363.926 0.938 A 5.101 5.101 0 0 1 366.792 2.342 A 6.307 6.307 0 0 1 366.914 2.461 Q 367.002 3.344 367.357 3.928 A 2.27 2.27 0 0 0 367.617 4.277 A 9.187 9.187 0 0 0 368.906 5.449 Q 369.609 5.977 370.254 6.563 A 2.659 2.659 0 0 1 370.875 7.424 Q 371.038 7.775 371.133 8.203 Q 371.392 8.268 371.561 8.225 A 0.374 0.374 0 0 0 371.777 8.086 A 0.376 0.376 0 0 1 371.999 7.945 Q 372.144 7.911 372.354 7.953 A 1.587 1.587 0 0 1 372.422 7.969 A 12.732 12.732 0 0 0 372.599 8.698 Q 372.785 9.369 372.999 9.773 A 1.849 1.849 0 0 0 373.242 10.137 A 2.265 2.265 0 0 1 373.491 10.487 Q 373.835 11.069 374.18 12.188 A 11.117 11.117 0 0 0 373.301 14.59 A 2.607 2.607 0 0 1 372.031 16.301 A 3.376 3.376 0 0 1 371.836 16.406 A 2.083 2.083 0 0 0 371.823 16.522 Q 371.766 17.179 372.229 17.274 A 0.754 0.754 0 0 0 372.305 17.285 Q 372.805 17.335 372.963 17.769 A 1.09 1.09 0 0 1 373.008 17.93 A 3.923 3.923 0 0 1 373.027 18.16 Q 373.06 18.795 372.851 19.188 A 1.104 1.104 0 0 1 372.656 19.453 A 77.946 77.946 0 0 1 377.695 29.121 A 77.946 77.946 0 0 0 382.734 38.789 A 8.376 8.376 0 0 0 382.705 39.485 A 7.565 7.565 0 0 0 382.969 41.484 Q 383.32 42.773 383.848 44.004 A 48.278 48.278 0 0 1 384.844 46.523 Q 385.313 47.813 385.547 49.102 A 11.921 11.921 0 0 1 385.662 50.566 Q 385.681 51.573 385.547 52.676 A 20.04 20.04 0 0 1 384.727 56.426 A 14.702 14.702 0 0 1 383.755 58.757 A 12.86 12.86 0 0 1 383.203 59.707 A 7.214 7.214 0 0 1 382.247 60.913 A 5.518 5.518 0 0 1 380.977 61.875 Q 379.336 63.984 376.992 65.156 A 22.919 22.919 0 0 0 372.656 67.969 A 8.851 8.851 0 0 1 369.933 69.107 A 10 10 0 0 1 369.785 69.141 Q 368.203 69.492 366.563 69.844 Q 365.273 70.547 363.516 71.309 Q 361.758 72.07 359.883 72.715 Q 358.008 73.359 356.133 73.652 A 18.693 18.693 0 0 1 354.891 73.806 Q 353.863 73.897 353.004 73.84 A 9.118 9.118 0 0 1 352.852 73.828 A 32.53 32.53 0 0 1 348.207 75.164 A 27.803 27.803 0 0 1 345.996 75.527 Q 342.656 75.938 338.203 75 Q 334.471 75.518 331.244 74.845 A 16.885 16.885 0 0 1 330.41 74.648 A 18.719 18.719 0 0 1 325.51 72.616 A 17.114 17.114 0 0 1 324.082 71.66 Q 321.328 69.609 319.277 66.738 Q 317.227 63.867 315.938 60.703 A 38.266 38.266 0 0 1 315.586 56.806 Q 315.461 53.454 315.998 50.448 A 25.321 25.321 0 0 1 316.406 48.574 A 41.002 41.002 0 0 1 320.286 38.786 A 38.511 38.511 0 0 1 320.449 38.496 Q 323.086 33.867 326.484 29.941 A 799.806 799.806 0 0 0 332.849 22.5 A 734.27 734.27 0 0 0 333.047 22.266 Q 333.555 22.435 333.91 22.329 A 0.841 0.841 0 0 0 334.16 22.207 A 2.634 2.634 0 0 0 334.568 21.843 Q 334.729 21.667 334.879 21.45 A 4.391 4.391 0 0 0 334.922 21.387 Q 335.273 20.859 335.684 20.391 A 1.752 1.752 0 0 1 336.68 19.805 A 5.981 5.981 0 0 1 337.883 18.066 A 5.461 5.461 0 0 1 339.082 17.168 A 6.507 6.507 0 0 0 341.602 14.648 Q 342.562 14.435 343.231 14.027 A 3.759 3.759 0 0 0 343.359 13.945 A 11.42 11.42 0 0 0 344.707 12.891 Q 345.352 12.305 346.055 11.777 A 4.4 4.4 0 0 1 347.338 11.118 A 5.232 5.232 0 0 1 347.695 11.016 Z M 97.266 65.742 Q 97.852 69.258 96.855 71.25 A 7.126 7.126 0 0 1 95.407 73.243 A 6.481 6.481 0 0 1 94.043 74.238 Q 92.227 75.234 89.883 75.352 A 23.173 23.173 0 0 1 88.726 75.381 Q 87.226 75.381 85.827 75.179 A 18.448 18.448 0 0 1 85.43 75.117 Q 84.423 73.707 83.589 71.692 A 25.689 25.689 0 0 1 83.32 71.016 A 86.499 86.499 0 0 1 81.563 65.918 Q 80.742 63.281 80.098 60.703 Q 79.544 58.488 79.12 56.705 A 241.599 241.599 0 0 1 78.984 56.133 A 9.904 9.904 0 0 0 79.514 54.421 A 13.055 13.055 0 0 0 79.746 52.91 Q 79.922 51.094 79.98 49.219 A 4028.283 4028.283 0 0 0 80.098 45.41 Q 80.156 43.477 80.391 41.719 A 54.986 54.986 0 0 1 82.744 32.483 A 51.077 51.077 0 0 1 82.793 32.344 Q 84.375 27.891 85.313 23.086 A 3.503 3.503 0 0 0 85.396 22.432 Q 85.398 22.383 85.398 22.334 A 3.064 3.064 0 0 0 85.137 21.094 Q 84.727 20.156 84.961 19.336 Q 85.077 18.872 85.653 18.695 A 1.793 1.793 0 0 1 85.664 18.691 A 1.106 1.106 0 0 0 86.015 18.52 Q 86.291 18.312 86.367 17.93 Q 86.719 16.641 86.543 15.82 A 1.879 1.879 0 0 1 86.503 15.449 Q 86.496 14.914 86.761 14.254 A 5.688 5.688 0 0 1 86.953 13.828 A 15.022 15.022 0 0 0 87.264 13.304 Q 87.604 12.708 88.022 11.877 A 57.965 57.965 0 0 0 88.418 11.074 A 6.758 6.758 0 0 0 89.112 8.097 A 7.108 7.108 0 0 0 89.062 7.266 A 13.069 13.069 0 0 0 91.055 5.625 A 19.474 19.474 0 0 1 92.926 3.974 A 17.994 17.994 0 0 1 92.988 3.926 A 12.197 12.197 0 0 1 94.762 2.804 A 13.926 13.926 0 0 1 95.215 2.578 A 5.713 5.713 0 0 1 96.577 2.139 Q 97.184 2.02 97.878 1.997 A 10.112 10.112 0 0 1 98.203 1.992 Q 99.141 3.164 99.434 4.57 L 100.02 7.383 A 11.62 11.62 0 0 0 100.898 10.02 A 3.924 3.924 0 0 0 102.22 11.556 A 5.249 5.249 0 0 0 102.891 11.953 L 102.891 14.297 A 31.782 31.782 0 0 0 103.008 17.051 A 10.278 10.278 0 0 0 103.25 18.568 A 8.452 8.452 0 0 0 103.535 19.512 A 2.976 2.976 0 0 0 103.889 20.2 A 2.094 2.094 0 0 0 104.883 20.977 A 293.599 293.599 0 0 0 100.957 32.109 A 103.262 103.262 0 0 0 97.969 43.184 Q 96.797 48.75 96.504 54.375 A 47.119 47.119 0 0 0 96.44 56.826 A 49.27 49.27 0 0 0 97.266 65.742 Z M 293.112 48.833 A 7.313 7.313 0 0 0 292.617 49.922 A 337.449 337.449 0 0 0 290.706 50.914 A 299.176 299.176 0 0 0 285.234 53.848 A 24.493 24.493 0 0 1 284.729 54.118 Q 282.952 55.042 280.834 55.782 A 41.097 41.097 0 0 1 276.797 56.953 A 23.597 23.597 0 0 0 274.509 57.069 A 30.909 30.909 0 0 0 271.699 57.48 A 52.677 52.677 0 0 1 266.074 58.242 A 27.878 27.878 0 0 1 263.805 58.336 A 25.472 25.472 0 0 1 260.508 58.125 A 10.754 10.754 0 0 1 260.466 58.119 A 9.048 9.048 0 0 1 255.82 56.133 A 16.015 16.015 0 0 1 256.084 53.787 A 11.778 11.778 0 0 1 256.875 51.211 A 24.781 24.781 0 0 1 259.102 47.227 Q 260.391 45.352 261.738 43.535 A 17.973 17.973 0 0 0 262.089 43.045 A 19.608 19.608 0 0 0 264.023 39.492 A 6.648 6.648 0 0 1 264.189 39.428 Q 264.574 39.286 264.697 39.307 A 0.105 0.105 0 0 1 264.727 39.316 A 0.104 0.104 0 0 0 264.754 39.325 Q 264.868 39.347 265.18 39.204 A 4.298 4.298 0 0 0 265.313 39.141 A 33.925 33.925 0 0 1 271.406 33.164 A 399.66 399.66 0 0 0 278.203 27.891 A 4.64 4.64 0 0 0 278.527 28.127 A 5.203 5.203 0 0 0 279.551 28.652 A 6.135 6.135 0 0 0 280.114 28.839 A 4.898 4.898 0 0 0 281.016 29.004 A 2.094 2.094 0 0 0 281.19 29.011 A 1.905 1.905 0 0 0 282.305 28.652 Q 282.698 28.377 282.933 27.863 A 3.217 3.217 0 0 0 283.125 27.305 A 2.621 2.621 0 0 0 283.132 27.312 Q 283.831 28.005 284.414 27.539 Q 285 27.07 285.234 26.602 A 55.048 55.048 0 0 1 285.308 26.715 A 59.343 59.343 0 0 1 289.453 34.395 A 46.294 46.294 0 0 0 293.906 42.188 A 18.975 18.975 0 0 0 293.913 42.725 Q 293.935 43.489 294.023 43.887 A 2.105 2.105 0 0 0 294.093 44.127 Q 294.264 44.611 294.727 45.352 Q 294.609 46.992 293.848 47.813 A 5.339 5.339 0 0 0 293.112 48.833 Z M 368.58 48.833 A 7.313 7.313 0 0 0 368.086 49.922 A 337.449 337.449 0 0 0 366.174 50.914 A 299.176 299.176 0 0 0 360.703 53.848 A 24.493 24.493 0 0 1 360.198 54.118 Q 358.42 55.042 356.303 55.782 A 41.097 41.097 0 0 1 352.266 56.953 A 23.597 23.597 0 0 0 349.978 57.069 A 30.909 30.909 0 0 0 347.168 57.48 A 52.677 52.677 0 0 1 341.543 58.242 A 27.878 27.878 0 0 1 339.274 58.336 A 25.472 25.472 0 0 1 335.977 58.125 A 10.754 10.754 0 0 1 335.934 58.119 A 9.048 9.048 0 0 1 331.289 56.133 A 16.015 16.015 0 0 1 331.552 53.787 A 11.778 11.778 0 0 1 332.344 51.211 A 24.781 24.781 0 0 1 334.57 47.227 Q 335.859 45.352 337.207 43.535 A 17.973 17.973 0 0 0 337.558 43.045 A 19.608 19.608 0 0 0 339.492 39.492 A 6.648 6.648 0 0 1 339.658 39.428 Q 340.043 39.286 340.166 39.307 A 0.105 0.105 0 0 1 340.195 39.316 A 0.104 0.104 0 0 0 340.222 39.325 Q 340.337 39.347 340.649 39.204 A 4.298 4.298 0 0 0 340.781 39.141 A 33.925 33.925 0 0 1 346.875 33.164 A 399.66 399.66 0 0 0 353.672 27.891 A 4.64 4.64 0 0 0 353.996 28.127 A 5.203 5.203 0 0 0 355.02 28.652 A 6.135 6.135 0 0 0 355.583 28.839 A 4.898 4.898 0 0 0 356.484 29.004 A 2.094 2.094 0 0 0 356.658 29.011 A 1.905 1.905 0 0 0 357.773 28.652 Q 358.167 28.377 358.402 27.863 A 3.217 3.217 0 0 0 358.594 27.305 A 2.621 2.621 0 0 0 358.601 27.312 Q 359.3 28.005 359.883 27.539 Q 360.469 27.07 360.703 26.602 A 55.048 55.048 0 0 1 360.776 26.715 A 59.343 59.343 0 0 1 364.922 34.395 A 46.294 46.294 0 0 0 369.375 42.188 A 18.975 18.975 0 0 0 369.382 42.725 Q 369.404 43.489 369.492 43.887 A 2.105 2.105 0 0 0 369.562 44.127 Q 369.733 44.611 370.195 45.352 Q 370.078 46.992 369.316 47.813 A 5.339 5.339 0 0 0 368.58 48.833 Z M 50.156 51.211 A 3.552 3.552 0 0 0 48.867 53.086 A 72.334 72.334 0 0 0 48.139 53.352 A 65.279 65.279 0 0 0 43.301 55.371 Q 40.664 56.602 37.91 57.773 A 81.569 81.569 0 0 1 32.227 59.941 Q 29.297 60.938 25.781 61.406 A 918.971 918.971 0 0 1 26.105 60.465 A 1012.017 1012.017 0 0 1 28.477 53.672 A 379.587 379.587 0 0 1 29.854 49.834 A 302.935 302.935 0 0 1 31.172 46.289 Q 33.75 45.938 36.27 45.117 Q 38.789 44.297 41.543 43.887 Q 44.297 43.477 47.402 43.887 Q 49.295 44.137 51.426 44.974 A 27.448 27.448 0 0 1 54.258 46.289 Q 54.314 46.961 54.183 47.485 A 2.186 2.186 0 0 1 53.672 48.457 A 8.812 8.812 0 0 1 53.258 48.876 A 10.082 10.082 0 0 1 52.031 49.863 A 56.034 56.034 0 0 0 50.156 51.211 Z M 47.344 15.703 A 46.889 46.889 0 0 0 45.506 15.667 A 47.124 47.124 0 0 0 35.449 16.758 Q 30.28 17.884 26.586 19.815 A 23.711 23.711 0 0 0 25.547 20.391 A 39.56 39.56 0 0 0 29.078 22.993 A 36.074 36.074 0 0 0 29.59 23.32 A 9.035 9.035 0 0 1 32.813 26.836 A 32.812 32.812 0 0 0 38.956 23.545 A 29.203 29.203 0 0 0 40.898 22.09 A 47.412 47.412 0 0 0 47.344 15.703 Z" vector-effect="non-scaling-stroke"/></g></svg>